<?xml version="1.0" standalone="no"?>
<!DOCTYPE svg PUBLIC "-//W3C//DTD SVG 20010904//EN"
 "http://www.w3.org/TR/2001/REC-SVG-20010904/DTD/svg10.dtd">
<svg version="1.0" xmlns="http://www.w3.org/2000/svg"
 width="1024.000000pt" height="1024.000000pt" viewBox="0 0 1024.000000 1024.000000"
 preserveAspectRatio="xMidYMid meet">
<metadata>
Created by potrace 1.14, written by Peter Selinger 2001-2017
</metadata>
<g transform="translate(0.000000,1024.000000) scale(0.100000,-0.100000)"
fill="#000000" stroke="none">
<path d="M4347 6839 c-42 -11 -67 -29 -83 -61 -14 -27 -16 -93 -15 -552 0
-286 0 -526 1 -531 0 -12 520 -13 617 -1 101 13 164 69 177 159 10 67 8 278
-3 314 -20 67 -64 106 -156 137 -16 6 -10 11 31 25 85 28 106 61 110 172 5
138 -30 233 -105 282 -45 30 -92 44 -181 53 -84 9 -364 11 -393 3z m332 -216
c17 -15 22 -30 23 -78 2 -99 -1 -123 -18 -139 -15 -16 -83 -23 -85 -8 -4 20
-5 228 -2 235 8 14 61 7 82 -10z m7 -436 c12 -12 20 -69 18 -137 -2 -108 -3
-124 -13 -138 -12 -19 -79 -33 -88 -18 -11 16 -10 300 0 307 9 6 74 -5 83 -14z"/>
<path d="M5472 6809 c-96 -9 -169 -39 -224 -91 -82 -81 -95 -145 -93 -488 2
-287 7 -324 55 -400 62 -96 176 -143 345 -143 159 1 251 49 318 164 32 55 37
83 42 209 l5 102 -124 -4 c-107 -3 -127 -6 -146 -23 -36 -32 -47 -65 -52 -149
-5 -85 -18 -106 -65 -106 -35 0 -44 32 -44 147 1 121 14 157 71 186 30 15 60
17 195 16 l160 -2 0 109 c1 228 -30 327 -129 400 -48 37 -113 63 -170 70 -23
3 -45 6 -51 8 -5 1 -47 -1 -93 -5z m84 -197 c18 -11 24 -44 25 -122 1 -44 -4
-75 -11 -80 -13 -8 -83 2 -81 13 0 4 1 43 1 86 0 95 24 131 66 103z"/>
<path d="M2261 5678 c-38 -25 -27 -5 -292 -526 l-159 -313 92 -44 c50 -25 102
-45 114 -45 57 0 104 37 134 105 24 55 86 188 120 260 16 33 38 81 50 108 25
55 33 61 19 15 -6 -18 -12 -40 -14 -48 -2 -8 -27 -107 -55 -220 -54 -212 -59
-247 -42 -291 31 -79 167 -96 212 -26 8 12 74 121 147 242 73 120 133 216 133
213 0 -3 -40 -110 -90 -237 -94 -241 -104 -286 -73 -331 26 -37 41 -47 123
-75 41 -15 80 -29 86 -31 14 -6 6 -27 134 346 60 173 131 380 159 460 27 80
49 145 48 146 -16 11 -287 104 -302 104 -43 0 -84 -22 -108 -58 -14 -20 -62
-98 -107 -172 -45 -74 -79 -126 -76 -115 3 11 15 63 27 115 12 52 34 144 50
204 16 61 27 111 26 112 -1 1 -56 27 -122 58 -145 69 -186 77 -234 44z"/>
<path d="M8044 5506 c-52 -24 -110 -84 -121 -125 -6 -24 -6 -24 -22 7 l-16 31
-94 -42 c-54 -24 -102 -53 -113 -67 -42 -57 -39 -71 103 -437 l133 -341 60 22
c103 39 159 70 180 99 37 50 27 93 -69 307 -48 107 -98 224 -112 260 l-25 65
22 17 c46 37 40 46 208 -322 11 -25 36 -80 55 -122 39 -86 76 -118 136 -118
46 0 246 97 233 113 -5 7 -76 143 -157 302 -81 160 -159 304 -174 322 -48 58
-137 69 -227 29z"/>
<path d="M7291 5198 c-150 -26 -268 -94 -313 -182 -22 -41 -28 -125 -16 -191
12 -60 78 -305 94 -347 53 -136 155 -178 340 -137 168 37 289 115 331 216 30
74 23 117 -57 335 -62 166 -84 211 -124 246 -65 57 -152 78 -255 60z m-7 -164
c20 -8 161 -435 161 -489 0 -36 -3 -40 -26 -43 -18 -2 -31 4 -42 21 -20 31
-147 444 -147 479 0 17 6 28 18 31 9 3 18 5 19 6 1 0 8 -2 17 -5z"/>
<path d="M4172 5105 c-97 -30 -139 -83 -166 -211 -16 -75 -13 -121 10 -182 16
-44 69 -94 221 -212 85 -66 103 -93 103 -155 0 -64 -23 -105 -58 -105 -50 0
-63 18 -65 92 -3 92 -23 118 -110 140 -102 26 -167 32 -168 16 0 -7 -3 -22 -5
-33 -2 -11 -7 -56 -10 -100 -7 -104 15 -152 96 -208 134 -93 384 -115 520 -47
75 38 98 87 107 226 10 164 -22 217 -218 356 -130 92 -144 108 -142 164 2 57
25 94 58 94 27 0 42 -20 47 -65 5 -39 32 -79 64 -94 46 -21 190 -35 200 -20 8
14 9 116 0 171 -11 71 -65 117 -186 158 -79 27 -233 35 -298 15z"/>
<path d="M6550 5007 c-3 -3 -23 -7 -46 -10 -97 -14 -205 -72 -239 -129 -27
-45 -25 -164 3 -229 33 -77 84 -105 282 -154 58 -15 113 -35 124 -45 23 -23
37 -95 22 -114 -16 -22 -61 -30 -75 -14 -7 7 -20 29 -30 48 -10 21 -33 43 -55
54 -33 16 -45 17 -118 6 -103 -15 -108 -17 -108 -49 0 -37 29 -120 53 -152 33
-46 99 -69 202 -70 172 -1 335 59 394 146 41 61 37 164 -12 263 -27 54 -85 84
-222 112 -135 28 -131 27 -162 42 -53 25 -74 121 -31 137 27 10 58 3 58 -13 0
-20 54 -66 88 -75 23 -7 55 -4 116 10 l84 20 -19 62 c-35 115 -82 149 -219
155 -47 2 -87 2 -90 -1z"/>
<path d="M3140 4947 c0 -66 -24 -152 -92 -328 -92 -241 -86 -289 47 -382 39
-27 69 -54 67 -60 -7 -32 -48 -107 -59 -107 -7 0 -124 57 -260 127 -409 209
-435 222 -503 242 -151 47 -298 49 -443 7 -293 -86 -451 -268 -446 -511 5
-208 99 -329 341 -440 68 -31 223 -71 307 -80 34 -4 72 -9 84 -11 32 -7 206
-7 247 0 19 4 60 11 92 17 198 35 428 166 576 328 l64 70 41 -15 c23 -9 51
-20 62 -25 64 -27 469 -154 525 -164 16 -3 39 -9 52 -14 24 -9 269 -66 328
-76 19 -3 53 -10 75 -15 22 -5 60 -12 85 -15 24 -4 47 -8 50 -10 3 -1 32 -6
65 -10 32 -3 62 -8 65 -10 3 -2 37 -6 75 -10 39 -4 77 -9 86 -10 9 -2 52 -6
95 -10 43 -4 87 -9 96 -10 9 -2 81 -7 160 -11 296 -15 677 -6 913 21 28 3 75
8 105 11 30 3 66 7 79 9 13 2 45 7 70 11 327 44 741 143 1051 250 41 14 84 30
95 34 11 5 40 16 65 24 192 63 569 241 824 389 236 137 566 365 566 391 0 29
-110 29 -197 0 -41 -14 -128 -65 -143 -84 -3 -3 -41 -31 -85 -61 -44 -30 -82
-56 -85 -59 -11 -12 -249 -159 -335 -207 -212 -118 -461 -234 -685 -316 -116
-43 -332 -114 -372 -122 -9 -2 -50 -13 -90 -24 -73 -20 -283 -66 -348 -76 -38
-6 -93 -15 -125 -21 -11 -2 -40 -6 -65 -9 -25 -3 -56 -8 -70 -10 -14 -2 -56
-7 -95 -10 -38 -4 -81 -8 -95 -11 -133 -21 -767 -21 -900 0 -14 3 -59 7 -100
11 -41 4 -86 8 -100 10 -14 1 -50 6 -80 9 -30 4 -66 9 -80 12 -14 2 -38 6 -55
9 -31 4 -95 14 -125 20 -177 34 -300 61 -410 90 -74 20 -146 38 -158 41 -121
26 -668 217 -694 242 -4 4 -1 20 7 36 68 131 173 330 195 371 72 131 202 386
199 389 -2 2 -41 16 -86 32 -122 42 -117 46 -219 -176 -46 -102 -92 -202 -101
-222 -18 -41 -31 -49 -61 -41 -32 8 -32 23 -2 109 93 259 126 361 122 380 -5
35 -42 61 -129 93 l-83 30 0 -42z m-1067 -618 c64 -21 193 -84 307 -150 68
-38 359 -185 420 -212 19 -8 58 -25 85 -37 28 -13 65 -29 83 -37 l34 -14 -38
-47 c-72 -91 -162 -171 -231 -205 -117 -59 -185 -72 -378 -72 -179 0 -227 8
-334 58 -270 124 -347 456 -159 688 41 51 115 60 211 28z"/>
<path d="M5877 4904 c-1 -1 -28 -4 -61 -8 -111 -11 -186 -40 -241 -93 -48 -45
-58 -71 -63 -172 l-5 -94 97 6 c136 8 176 39 181 137 3 59 9 69 41 65 38 -4
43 -13 50 -92 l7 -71 -34 -18 c-19 -10 -79 -39 -134 -64 -186 -84 -191 -90
-188 -240 2 -167 50 -223 194 -229 77 -3 133 14 177 54 l37 33 23 -25 c21 -24
26 -25 95 -19 163 13 207 22 202 44 -4 23 -16 110 -20 147 -2 17 -6 44 -9 60
-8 50 -18 115 -30 215 -35 268 -83 339 -244 358 -40 5 -73 8 -75 6z m27 -519
c19 -174 16 -195 -30 -195 -37 0 -54 36 -54 116 0 68 1 72 37 107 20 21 37 36
39 35 1 -2 5 -30 8 -63z"/>
<path d="M4944 4855 c-134 -40 -186 -116 -198 -292 -23 -338 -22 -356 24 -425
57 -86 183 -130 356 -124 82 3 112 8 156 28 113 52 157 124 155 252 l-2 81
-100 -3 c-55 -2 -110 -8 -124 -15 -38 -19 -61 -58 -68 -115 -7 -59 -23 -82
-57 -82 -40 0 -48 22 -44 111 3 79 4 82 40 115 26 23 48 34 70 35 88 2 245 7
263 8 20 1 21 6 18 84 -7 173 -42 253 -134 306 -85 48 -254 66 -355 36z m174
-147 c7 -7 12 -40 12 -79 l0 -68 -43 2 -44 1 4 45 c8 97 12 111 36 111 13 0
28 -5 35 -12z"/>
</g>
</svg>
