<svg viewBox="0 0 28 28" fill="none">
  <path
    d="M12.4865 2.18244C12.9355 0.800475 14.8906 0.800477 15.3396 2.18244L17.2347 8.01496C17.5694 9.04502 18.5293 9.74242 19.6124 9.74242H25.745C27.1981 9.74242 27.8023 11.6018 26.6267 12.4559L21.6653 16.0606C20.7891 16.6973 20.4224 17.8257 20.7571 18.8557L22.6522 24.6882C23.1012 26.0702 21.5195 27.2194 20.3439 26.3653L15.3825 22.7606C14.5063 22.124 13.3198 22.124 12.4436 22.7606L7.48214 26.3653C6.30657 27.2194 4.72485 26.0702 5.17388 24.6883L7.06898 18.8557C7.40366 17.8257 7.03702 16.6973 6.1608 16.0606L1.19936 12.4559C0.0237899 11.6018 0.627955 9.74242 2.08104 9.74242H8.21371C9.29678 9.74242 10.2567 9.04502 10.5914 8.01496L12.4865 2.18244Z"
    stroke="#DE684A" />
</svg>